<svg width="568" height="515" viewBox="0 0 568 515" fill="none" xmlns="http://www.w3.org/2000/svg">
<path d="M174.423 360.162C174.423 361.025 173.722 361.725 172.86 361.725C171.997 361.725 171.297 361.025 171.297 360.162C171.297 359.299 171.997 358.599 172.86 358.599C173.722 358.609 174.423 359.299 174.423 360.162Z" fill="white"/>
<path d="M300.422 13.054C301.286 13.054 301.985 12.3543 301.985 11.4911C301.985 10.628 301.286 9.92834 300.422 9.92834C299.559 9.92834 298.86 10.628 298.86 11.4911C298.86 12.3543 299.559 13.054 300.422 13.054Z" fill="white"/>
<g opacity="0.7">
<path opacity="0.7" d="M56.3689 238.282L280.522 5.3717" stroke="#969696" stroke-width="2.02963" stroke-miterlimit="10" stroke-linecap="round" stroke-linejoin="round" stroke-dasharray="0.3 0.3"/>
<path opacity="0.7" d="M58.1652 257.28L296.404 9.32947" stroke="#969696" stroke-width="2.02963" stroke-miterlimit="10" stroke-linecap="round" stroke-linejoin="round" stroke-dasharray="0.3 0.3"/>
<path opacity="0.7" d="M65.3601 270.503L310.347 15.3575" stroke="#969696" stroke-width="2.02963" stroke-miterlimit="10" stroke-linecap="round" stroke-linejoin="round" stroke-dasharray="0.3 0.3"/>
<path opacity="0.7" d="M75.4879 280.61L325.955 19.6199" stroke="#969696" stroke-width="2.02963" stroke-miterlimit="10" stroke-linecap="round" stroke-linejoin="round" stroke-dasharray="0.3 0.3"/>
<path opacity="0.7" d="M83.373 293.103L341.695 23.7297" stroke="#969696" stroke-width="2.02963" stroke-miterlimit="10" stroke-linecap="round" stroke-linejoin="round" stroke-dasharray="0.3 0.3"/>
<path opacity="0.7" d="M92.6486 304.114L358.399 26.8148" stroke="#969696" stroke-width="2.02963" stroke-miterlimit="10" stroke-linecap="round" stroke-linejoin="round" stroke-dasharray="0.3 0.3"/>
<path opacity="0.7" d="M101.853 315.206L371.185 34.0708" stroke="#969696" stroke-width="2.02963" stroke-miterlimit="10" stroke-linecap="round" stroke-linejoin="round" stroke-dasharray="0.3 0.3"/>
<path opacity="0.7" d="M111.067 326.277L386.834 38.2822" stroke="#969696" stroke-width="2.02963" stroke-miterlimit="10" stroke-linecap="round" stroke-linejoin="round" stroke-dasharray="0.3 0.3"/>
<path opacity="0.7" d="M120.566 337.044L399.559 45.6093" stroke="#969696" stroke-width="2.02963" stroke-miterlimit="10" stroke-linecap="round" stroke-linejoin="round" stroke-dasharray="0.3 0.3"/>
<path opacity="0.7" d="M128.959 349.009L410.154 55.2094" stroke="#969696" stroke-width="2.02963" stroke-miterlimit="10" stroke-linecap="round" stroke-linejoin="round" stroke-dasharray="0.3 0.3"/>
<path opacity="0.7" d="M138.478 359.756L422.109 63.3584" stroke="#969696" stroke-width="2.02963" stroke-miterlimit="10" stroke-linecap="round" stroke-linejoin="round" stroke-dasharray="0.3 0.3"/>
<path opacity="0.7" d="M148.575 369.884L433.891 71.7001" stroke="#969696" stroke-width="2.02963" stroke-miterlimit="10" stroke-linecap="round" stroke-linejoin="round" stroke-dasharray="0.3 0.3"/>
<path opacity="0.7" d="M157.089 381.706L432.318 94.2798" stroke="#969696" stroke-width="2.02963" stroke-miterlimit="10" stroke-linecap="round" stroke-linejoin="round" stroke-dasharray="0.3 0.3"/>
</g>
<g opacity="0.7">
<g opacity="0.7">
<path opacity="0.7" d="M188.478 370.401L412.641 137.491" stroke="#969696" stroke-width="2.02963" stroke-miterlimit="10" stroke-linecap="round" stroke-linejoin="round" stroke-dasharray="0.3 0.3"/>
<path opacity="0.7" d="M190.274 389.399L428.523 141.448" stroke="#969696" stroke-width="2.02963" stroke-miterlimit="10" stroke-linecap="round" stroke-linejoin="round" stroke-dasharray="0.3 0.3"/>
<path opacity="0.7" d="M197.479 402.622L442.466 147.476" stroke="#969696" stroke-width="2.02963" stroke-miterlimit="10" stroke-linecap="round" stroke-linejoin="round" stroke-dasharray="0.3 0.3"/>
<path opacity="0.7" d="M207.597 412.729L458.064 151.729" stroke="#969696" stroke-width="2.02963" stroke-miterlimit="10" stroke-linecap="round" stroke-linejoin="round" stroke-dasharray="0.3 0.3"/>
<path opacity="0.7" d="M215.492 425.212L473.804 155.839" stroke="#969696" stroke-width="2.02963" stroke-miterlimit="10" stroke-linecap="round" stroke-linejoin="round" stroke-dasharray="0.3 0.3"/>
<path opacity="0.7" d="M224.768 436.232L490.508 158.924" stroke="#969696" stroke-width="2.02963" stroke-miterlimit="10" stroke-linecap="round" stroke-linejoin="round" stroke-dasharray="0.3 0.3"/>
<path opacity="0.7" d="M233.962 447.324L503.294 166.19" stroke="#969696" stroke-width="2.02963" stroke-miterlimit="10" stroke-linecap="round" stroke-linejoin="round" stroke-dasharray="0.3 0.3"/>
<path opacity="0.7" d="M243.176 458.396L518.943 170.401" stroke="#969696" stroke-width="2.02963" stroke-miterlimit="10" stroke-linecap="round" stroke-linejoin="round" stroke-dasharray="0.3 0.3"/>
<path opacity="0.7" d="M252.685 469.163L531.669 177.728" stroke="#969696" stroke-width="2.02963" stroke-miterlimit="10" stroke-linecap="round" stroke-linejoin="round" stroke-dasharray="0.3 0.3"/>
<path opacity="0.7" d="M261.068 481.118L542.273 187.318" stroke="#969696" stroke-width="2.02963" stroke-miterlimit="10" stroke-linecap="round" stroke-linejoin="round" stroke-dasharray="0.3 0.3"/>
<path opacity="0.7" d="M270.587 491.875L554.228 195.477" stroke="#969696" stroke-width="2.02963" stroke-miterlimit="10" stroke-linecap="round" stroke-linejoin="round" stroke-dasharray="0.3 0.3"/>
<path opacity="0.7" d="M280.694 501.993L566 203.819" stroke="#969696" stroke-width="2.02963" stroke-miterlimit="10" stroke-linecap="round" stroke-linejoin="round" stroke-dasharray="0.3 0.3"/>
<path opacity="0.7" d="M289.209 513.825L564.437 226.399" stroke="#969696" stroke-width="2.02963" stroke-miterlimit="10" stroke-linecap="round" stroke-linejoin="round" stroke-dasharray="0.3 0.3"/>
</g>
</g>
<path d="M381.77 102.855C384.578 102.855 386.854 100.579 386.854 97.7709C386.854 94.9629 384.578 92.6866 381.77 92.6866C378.962 92.6866 376.686 94.9629 376.686 97.7709C376.686 100.579 378.962 102.855 381.77 102.855Z" fill="url(#paint0_linear_7_3362)"/>
<path d="M381.77 106.478C386.579 106.478 390.477 102.58 390.477 97.7709C390.477 92.9621 386.579 89.0637 381.77 89.0637C376.961 89.0637 373.063 92.9621 373.063 97.7709C373.063 102.58 376.961 106.478 381.77 106.478Z" stroke="url(#paint1_linear_7_3362)" stroke-width="1.01482" stroke-miterlimit="10"/>
<path d="M271.297 348.329C271.297 351.729 268.537 354.489 265.137 354.489C261.737 354.489 258.977 351.729 258.977 348.329C258.977 344.929 261.737 342.169 265.137 342.169C268.537 342.169 271.297 344.919 271.297 348.329Z" stroke="url(#paint2_linear_7_3362)" stroke-width="1.01482" stroke-miterlimit="10"/>
<path d="M406.329 125.222C413.032 125.222 418.466 119.788 418.466 113.084C418.466 106.381 413.032 100.947 406.329 100.947C399.626 100.947 394.192 106.381 394.192 113.084C394.192 119.788 399.626 125.222 406.329 125.222Z" fill="url(#paint3_linear_7_3362)"/>
<path d="M63.7669 244.625C63.7669 247.73 61.2501 250.247 58.1448 250.247C55.0395 250.247 52.5227 247.73 52.5227 244.625C52.5227 241.52 55.0395 239.003 58.1448 239.003C61.2501 239.003 63.7669 241.52 63.7669 244.625Z" fill="url(#paint4_linear_7_3362)"/>
<path d="M345.307 83.7764L354.36 72.9889" stroke="url(#paint5_linear_7_3362)" stroke-width="1.01482" stroke-miterlimit="10"/>
<path d="M348.088 86.1004L362.305 69.1631" stroke="url(#paint6_linear_7_3362)" stroke-width="1.01482" stroke-miterlimit="10"/>
<path d="M345.307 95.0612L359.911 77.647" stroke="url(#paint7_linear_7_3362)" stroke-width="1.01482" stroke-miterlimit="10"/>
<path d="M69.1558 209.37L78.1978 198.583" stroke="url(#paint8_linear_7_3362)" stroke-width="1.01482" stroke-miterlimit="10"/>
<path d="M71.9261 211.704L86.1437 194.757" stroke="url(#paint9_linear_7_3362)" stroke-width="1.01482" stroke-miterlimit="10"/>
<path d="M69.1558 220.655L83.7488 203.241" stroke="url(#paint10_linear_7_3362)" stroke-width="1.01482" stroke-miterlimit="10"/>
<path d="M370.922 269.742L382.47 255.96" stroke="url(#paint11_linear_7_3362)" stroke-width="1.01482" stroke-miterlimit="10"/>
<path d="M374.463 272.715L392.618 251.069" stroke="url(#paint12_linear_7_3362)" stroke-width="1.01482" stroke-miterlimit="10"/>
<path d="M370.922 284.152L389.574 261.917" stroke="url(#paint13_linear_7_3362)" stroke-width="1.01482" stroke-miterlimit="10"/>
<g opacity="0.5">
<path opacity="0.5" d="M352.188 29.1692L338.63 44.2798" stroke="url(#paint14_linear_7_3362)" stroke-width="1.01482" stroke-miterlimit="10"/>
<path opacity="0.5" d="M356.075 32.6602L334.784 56.3967" stroke="url(#paint15_linear_7_3362)" stroke-width="1.01482" stroke-miterlimit="10"/>
<path opacity="0.5" d="M368.293 26.8757L346.414 51.2618" stroke="url(#paint16_linear_7_3362)" stroke-width="1.01482" stroke-miterlimit="10"/>
</g>
<path d="M63.767 263.186L80.9681 242.677" stroke="url(#paint17_linear_7_3362)" stroke-width="1.01482" stroke-miterlimit="10"/>
<path d="M69.0439 267.611L96.0685 235.4" stroke="url(#paint18_linear_7_3362)" stroke-width="1.01482" stroke-miterlimit="10"/>
<path d="M63.767 284.639L91.5222 251.536" stroke="url(#paint19_linear_7_3362)" stroke-width="1.01482" stroke-miterlimit="10"/>
<path d="M96.0687 218.706C97.935 218.706 99.448 217.193 99.448 215.327C99.448 213.461 97.935 211.948 96.0687 211.948C94.2023 211.948 92.6893 213.461 92.6893 215.327C92.6893 217.193 94.2023 218.706 96.0687 218.706Z" fill="white"/>
<path d="M98.2909 286.283C98.2909 288.15 96.7788 289.662 94.9116 289.662C93.0443 289.662 91.5322 288.15 91.5322 286.283C91.5322 284.416 93.0443 282.904 94.9116 282.904C96.7788 282.904 98.2909 284.416 98.2909 286.283Z" fill="white"/>
<path d="M80.5927 122.39C80.5927 123.253 79.8925 123.953 79.0299 123.953C78.1673 123.953 77.467 123.253 77.467 122.39C77.467 121.528 78.1673 120.827 79.0299 120.827C79.8925 120.838 80.5927 121.528 80.5927 122.39Z" fill="white"/>
<path d="M380.248 167.56C381.111 167.56 381.81 166.86 381.81 165.997C381.81 165.134 381.111 164.434 380.248 164.434C379.385 164.434 378.685 165.134 378.685 165.997C378.685 166.86 379.385 167.56 380.248 167.56Z" fill="white"/>
<path d="M395.744 306.661C395.744 307.523 395.044 308.224 394.181 308.224C393.318 308.224 392.618 307.523 392.618 306.661C392.618 305.798 393.318 305.098 394.181 305.098C395.044 305.108 395.744 305.798 395.744 306.661Z" fill="white"/>
<path d="M63.7669 101.15C65.6333 101.15 67.1463 99.6372 67.1463 97.7708C67.1463 95.9045 65.6333 94.3915 63.7669 94.3915C61.9006 94.3915 60.3876 95.9045 60.3876 97.7708C60.3876 99.6372 61.9006 101.15 63.7669 101.15Z" fill="white"/>
<path d="M155.78 322.482C155.78 324.349 154.268 325.861 152.401 325.861C150.534 325.861 149.022 324.349 149.022 322.482C149.022 320.615 150.534 319.103 152.401 319.103C154.268 319.103 155.78 320.615 155.78 322.482Z" fill="white"/>
<path d="M374.301 320.442C374.301 322.309 372.789 323.821 370.922 323.821C369.054 323.821 367.542 322.309 367.542 320.442C367.542 318.575 369.054 317.062 370.922 317.062C372.789 317.062 374.301 318.575 374.301 320.442Z" fill="white"/>
<path d="M432.156 220.655C432.156 222.522 430.644 224.034 428.776 224.034C426.909 224.034 425.397 222.522 425.397 220.655C425.397 218.788 426.909 217.276 428.776 217.276C430.644 217.266 432.156 218.788 432.156 220.655Z" fill="white"/>
<path d="M25.965 174.318C27.8314 174.318 29.3444 172.805 29.3444 170.939C29.3444 169.073 27.8314 167.56 25.965 167.56C24.0987 167.56 22.5857 169.073 22.5857 170.939C22.5857 172.805 24.0987 174.318 25.965 174.318Z" fill="white"/>
<path d="M121.54 325.932L130.876 329.728L135.078 315.216L121.54 325.932Z" fill="#FF7E3D"/>
<path d="M96.0687 313.815L103.66 333.198L132.795 307.686L96.0687 313.815Z" fill="url(#paint20_linear_7_3362)"/>
<path d="M424.94 154.235L420.871 174.653L387.707 154.651L424.94 154.235Z" fill="#FF7E3D"/>
<path d="M90.0404 76.5916L77.6901 85.2479L92.547 92.9301L90.0404 76.5916Z" fill="#FF7E3D"/>
<path d="M392.699 188.516L378.665 183.005L380.471 199.628L392.699 188.516Z" fill="url(#paint21_linear_7_3362)"/>
<path d="M264.092 40.596C250.443 33.0052 233.536 28.0123 218.029 32.4572C205.994 35.9076 196.911 44.8988 190.051 55.0267C182.328 66.4231 176.889 79.1997 171.125 91.6515C167.593 99.2728 163.747 106.6 158.592 113.277C153.051 120.462 146.454 126.835 139.097 132.133C131.486 137.602 123.103 141.875 114.214 144.828C104.076 148.197 93.5418 150.064 83.1399 152.419C66.0403 156.305 47.9055 162.344 36.7121 176.734C31.7598 183.097 28.8168 190.809 28.6849 198.897C28.5428 207.199 31.2016 215.378 35.3928 222.482C44.9017 238.627 61.433 247.862 78.6849 253.779C97.1546 260.111 116.649 263.125 134.733 270.635C143.765 274.39 152.411 279.311 159.576 286.04C166.68 292.717 172.17 300.846 177.051 309.228C186.255 325.059 193.664 342.321 206.927 355.341C213.047 361.349 220.363 366.21 228.624 368.686C236.925 371.162 245.795 371.163 254.228 369.366C293.857 360.913 311.494 320.98 327.467 288.191C336.398 269.863 346.302 252.023 361.352 237.968C375.884 224.4 393.227 214.049 406.775 199.395C418.811 186.385 427.863 169.721 425.742 151.485C423.723 134.152 412.935 118.818 399.702 107.97C384.459 95.4773 365.604 88.1706 347.297 81.4525C337.473 77.8499 327.528 74.4909 317.989 70.1678C308.571 65.8954 299.519 60.8924 290.579 55.7168C286.306 53.2407 282.064 50.7239 277.802 48.2275C273.276 45.5788 268.577 43.2853 264.001 40.7381C263.645 40.5351 263.321 41.0831 263.676 41.2861C268.243 43.8232 272.586 46.7763 277.092 49.4249C281.354 51.9214 285.596 54.4381 289.868 56.9143C298.606 61.9782 307.455 66.8696 316.639 71.071C334.855 79.4128 354.319 84.6391 372.485 93.1229C389.422 101.028 405.354 111.643 415.523 127.698C420.191 135.065 423.52 143.387 424.433 152.094C425.387 161.177 423.56 170.259 419.684 178.489C411.565 195.731 396.434 208.031 381.709 219.468C373.895 225.536 366 231.554 358.866 238.424C351.965 245.061 346.028 252.561 340.873 260.618C330.359 277.048 323.002 295.193 313.98 312.435C305.172 329.261 294.394 346.107 278.543 357.128C263.899 367.306 244.607 372.766 227.244 366.799C210.154 360.923 198.859 345.366 190.254 330.306C181.12 314.312 173.53 296.766 159.596 284.203C145.835 271.802 127.741 265.936 110.185 261.248C91.634 256.295 72.2611 252.236 55.9023 241.662C41.4716 232.336 29.4764 216.2 30.0447 198.349C30.613 180.265 45.2264 167.55 60.6922 160.73C79.2532 152.54 100.077 151.82 118.953 144.554C134.764 138.465 148.778 127.972 159.2 114.637C168.456 102.804 173.672 88.7085 180.177 75.3129C185.789 63.7542 192.152 51.9011 201.782 43.1534C211.727 34.1114 224.494 30.7016 237.727 32.5485C246.85 33.817 255.527 37.0645 263.595 41.4586C264.143 41.7326 264.63 40.9005 264.092 40.596Z" fill="url(#paint22_linear_7_3362)"/>
<g opacity="0.4248">
<path opacity="0.4248" d="M269.369 11.2069C253.761 2.53026 234.419 -3.173 216.69 1.92138C202.939 5.86902 192.558 16.1491 184.723 27.718C175.884 40.7686 169.663 55.3921 163.057 69.6401C159.008 78.3777 154.603 86.7601 148.707 94.4118C142.365 102.642 134.804 109.959 126.361 116.017C117.644 122.289 108.033 127.18 97.8548 130.56C86.2555 134.416 74.1893 136.547 62.2855 139.257C42.73 143.701 21.977 150.602 9.16998 167.063C3.51746 174.329 0.168561 183.137 0.00619006 192.372C-0.156181 201.861 2.88827 211.197 7.66806 219.315C18.5367 237.775 37.4428 248.339 57.1708 255.098C78.3196 262.344 100.635 265.794 121.338 274.39C131.699 278.692 141.614 284.335 149.824 292.047C157.962 299.689 164.254 309.005 169.846 318.615C180.37 336.73 188.853 356.488 204.035 371.386C211.027 378.256 219.379 383.807 228.827 386.638C238.316 389.47 248.443 389.47 258.084 387.42C303.416 377.749 323.591 332.052 341.868 294.534C352.097 273.547 363.432 253.109 380.684 237.014C397.327 221.487 417.177 209.634 432.684 192.859C446.444 177.982 456.796 158.934 454.36 138.079C452.046 118.27 439.706 100.734 424.575 88.333C407.141 74.0444 385.566 65.6823 364.63 58.0002C353.376 53.8699 341.979 50.0237 331.05 45.0714C320.272 40.18 309.901 34.4564 299.671 28.5197C294.78 25.6884 289.919 22.8063 285.048 19.9445C279.872 16.9102 274.514 14.2412 269.278 11.3287C268.922 11.1258 268.598 11.6738 268.953 11.8767C274.179 14.7791 279.182 18.1179 284.348 21.142C289.219 24.0038 294.09 26.8757 298.971 29.7172C308.967 35.5118 319.095 41.1136 329.609 45.9238C350.463 55.4733 372.748 61.4506 393.542 71.1623C412.945 80.2247 431.192 92.3822 442.852 110.771C448.2 119.214 452.016 128.763 453.061 138.749C454.157 149.171 452.056 159.573 447.601 169.021C438.295 188.769 420.973 202.855 404.116 215.956C395.166 222.908 386.134 229.788 377.965 237.653C370.069 245.244 363.28 253.829 357.384 263.044C345.348 281.859 336.925 302.632 326.595 322.37C316.497 341.652 304.157 360.943 285.992 373.568C269.207 385.228 247.084 391.489 227.183 384.639C207.597 377.901 194.638 360.081 184.774 342.809C174.321 324.511 165.634 304.428 149.692 290.048C133.952 275.861 113.25 269.153 93.1664 263.795C71.9263 258.122 49.7322 253.464 31.0088 241.367C14.4673 230.681 0.716564 212.171 1.3559 191.702C2.00538 170.97 18.76 156.376 36.4889 148.552C57.7391 139.175 81.5975 138.353 103.213 130.022C121.287 123.06 137.321 111.045 149.245 95.8021C159.84 82.2543 165.807 66.1289 173.246 50.8051C179.68 37.5618 186.966 23.9936 197.997 13.9673C209.414 3.59582 224.047 -0.311224 239.239 1.81989C249.692 3.28123 259.627 6.99546 268.862 12.0391C269.43 12.3334 269.917 11.5012 269.369 11.2069Z" fill="url(#paint23_linear_7_3362)"/>
</g>
<path d="M342.821 240.688C354.776 227.769 369.897 218.493 382.947 206.803C394.323 196.614 404.776 183.665 407.333 168.189C409.789 153.251 403.984 138.556 394.618 127.079C384.185 114.292 369.663 105.991 354.705 99.5366C338.356 92.4836 321.094 87.6835 305.06 79.8897C289.087 72.1162 274.413 62.0493 258.673 53.88C246.749 47.6896 232.105 43.9044 218.841 47.7302C208.632 50.6732 200.717 58.0204 194.648 66.484C187.717 76.1451 182.836 87.1254 177.893 97.8723C175.062 104.042 172.292 110.233 168.567 115.936C164.396 122.309 159.353 128.104 153.639 133.137C147.784 138.303 141.208 142.646 134.165 146.005C126.057 149.872 117.339 152.135 108.602 154.073C92.7096 157.594 76.1478 160.436 62.803 170.442C57.191 174.653 52.3402 180.012 49.5089 186.496C46.6775 192.971 46.1092 200.146 47.5401 207.046C50.615 221.842 61.4736 233.756 74.2907 241.104C103.254 257.716 141.715 254.865 166.598 279.119C178.675 290.891 185.22 306.742 193.643 321.041C201.122 333.746 210.753 346.381 224.829 352.094C239.188 357.929 255.547 354.885 268.77 347.558C283.069 339.642 293.542 326.571 301.762 312.729C303.832 309.238 305.781 305.687 307.648 302.084C309.576 298.38 311.058 294.503 312.874 290.748C313.047 290.383 312.509 290.058 312.326 290.424C310.53 294.148 308.358 297.71 306.45 301.374C304.532 305.057 302.543 308.711 300.412 312.283C296.221 319.316 291.522 326.064 285.961 332.082C275.235 343.691 260.773 352.419 244.749 353.657C237.047 354.256 229.274 352.947 222.342 349.476C215.573 346.086 209.87 340.962 205.04 335.187C194.861 323.02 188.772 308.224 180.491 294.818C176.371 288.15 171.662 281.777 165.827 276.511C159.962 271.213 153.091 267.154 145.886 263.978C131.08 257.442 115.096 254.499 99.651 249.902C84.2663 245.325 68.628 238.78 58.3073 225.952C48.9609 214.333 44.5261 198.136 52.0763 184.426C59.4033 171.122 74.2907 164.038 88.3358 160.172C104.766 155.646 121.987 153.931 137.311 145.985C150.24 139.287 161.413 129.23 169.45 117.093C176.31 106.742 180.542 94.7873 186.103 83.7257C191.015 73.9734 196.688 64.0891 205.05 56.8636C213.716 49.3742 224.666 46.5429 235.961 47.9636C252.817 50.0744 267.065 60.1313 281.384 68.4934C288.924 72.8977 296.525 77.2208 304.39 81.0365C311.971 84.7203 319.785 87.714 327.701 90.5859C357.151 101.313 393.075 113.703 404.157 146.482C406.603 153.708 407.323 161.44 405.892 168.95C404.431 176.602 400.95 183.706 396.475 190.038C386.915 203.596 373.276 213.196 360.449 223.385C353.984 228.52 347.693 233.878 342.141 239.997C341.725 240.464 342.405 241.144 342.821 240.688Z" fill="url(#paint24_linear_7_3362)"/>
<defs>
<linearGradient id="paint0_linear_7_3362" x1="376.69" y1="97.7749" x2="386.849" y2="97.7749" gradientUnits="userSpaceOnUse">
<stop offset="0.0277" stop-color="#FFD24D"/>
<stop offset="0.7154" stop-color="#F6BE56"/>
<stop offset="1" stop-color="#F2B45A"/>
</linearGradient>
<linearGradient id="paint1_linear_7_3362" x1="372.552" y1="97.7749" x2="390.987" y2="97.7749" gradientUnits="userSpaceOnUse">
<stop offset="0.0277" stop-color="#FFD24D"/>
<stop offset="0.7154" stop-color="#F6BE56"/>
<stop offset="1" stop-color="#F2B45A"/>
</linearGradient>
<linearGradient id="paint2_linear_7_3362" x1="258.467" y1="348.325" x2="271.799" y2="348.325" gradientUnits="userSpaceOnUse">
<stop offset="0.0277" stop-color="#FFD24D"/>
<stop offset="0.7154" stop-color="#F6BE56"/>
<stop offset="1" stop-color="#F2B45A"/>
</linearGradient>
<linearGradient id="paint3_linear_7_3362" x1="394.187" y1="113.089" x2="418.467" y2="113.089" gradientUnits="userSpaceOnUse">
<stop offset="0.0277" stop-color="#FFD24D"/>
<stop offset="0.7154" stop-color="#F6BE56"/>
<stop offset="1" stop-color="#F2B45A"/>
</linearGradient>
<linearGradient id="paint4_linear_7_3362" x1="52.5304" y1="244.622" x2="63.7664" y2="244.622" gradientUnits="userSpaceOnUse">
<stop offset="0.0277" stop-color="#FFD24D"/>
<stop offset="0.7154" stop-color="#F6BE56"/>
<stop offset="1" stop-color="#F2B45A"/>
</linearGradient>
<linearGradient id="paint5_linear_7_3362" x1="344.52" y1="78.847" x2="355.151" y2="77.9154" gradientUnits="userSpaceOnUse">
<stop offset="0.0277" stop-color="#FFD24D"/>
<stop offset="0.7154" stop-color="#F6BE56"/>
<stop offset="1" stop-color="#F2B45A"/>
</linearGradient>
<linearGradient id="paint6_linear_7_3362" x1="347.05" y1="78.3457" x2="363.343" y2="76.9179" gradientUnits="userSpaceOnUse">
<stop offset="0.0277" stop-color="#FFD24D"/>
<stop offset="0.7154" stop-color="#F6BE56"/>
<stop offset="1" stop-color="#F2B45A"/>
</linearGradient>
<linearGradient id="paint7_linear_7_3362" x1="344.253" y1="87.0857" x2="360.973" y2="85.6205" gradientUnits="userSpaceOnUse">
<stop offset="0.0277" stop-color="#FFD24D"/>
<stop offset="0.7154" stop-color="#F6BE56"/>
<stop offset="1" stop-color="#F2B45A"/>
</linearGradient>
<linearGradient id="paint8_linear_7_3362" x1="68.7624" y1="203.977" x2="78.5867" y2="203.977" gradientUnits="userSpaceOnUse">
<stop offset="0.0277" stop-color="#FFD24D"/>
<stop offset="0.1674" stop-color="#EBC34D"/>
<stop offset="0.4544" stop-color="#B69D4D"/>
<stop offset="0.8604" stop-color="#625F4E"/>
<stop offset="1" stop-color="#44494E"/>
</linearGradient>
<linearGradient id="paint9_linear_7_3362" x1="71.5403" y1="203.227" x2="86.5308" y2="203.227" gradientUnits="userSpaceOnUse">
<stop offset="0.0277" stop-color="#FFD24D"/>
<stop offset="0.1674" stop-color="#EBC34D"/>
<stop offset="0.4544" stop-color="#B69D4D"/>
<stop offset="0.8604" stop-color="#625F4E"/>
<stop offset="1" stop-color="#44494E"/>
</linearGradient>
<linearGradient id="paint10_linear_7_3362" x1="68.7624" y1="211.949" x2="84.1425" y2="211.949" gradientUnits="userSpaceOnUse">
<stop offset="0.0277" stop-color="#FFD24D"/>
<stop offset="0.1674" stop-color="#EBC34D"/>
<stop offset="0.4544" stop-color="#B69D4D"/>
<stop offset="0.8604" stop-color="#625F4E"/>
<stop offset="1" stop-color="#44494E"/>
</linearGradient>
<linearGradient id="paint11_linear_7_3362" x1="370.005" y1="263.438" x2="383.386" y2="262.265" gradientUnits="userSpaceOnUse">
<stop offset="0.0277" stop-color="#FFD24D"/>
<stop offset="0.7154" stop-color="#F6BE56"/>
<stop offset="1" stop-color="#F2B45A"/>
</linearGradient>
<linearGradient id="paint12_linear_7_3362" x1="373.236" y1="262.798" x2="393.851" y2="260.991" gradientUnits="userSpaceOnUse">
<stop offset="0.0277" stop-color="#FFD24D"/>
<stop offset="0.7154" stop-color="#F6BE56"/>
<stop offset="1" stop-color="#F2B45A"/>
</linearGradient>
<linearGradient id="paint13_linear_7_3362" x1="369.664" y1="273.962" x2="390.824" y2="272.108" gradientUnits="userSpaceOnUse">
<stop offset="0.0277" stop-color="#FFD24D"/>
<stop offset="0.7154" stop-color="#F6BE56"/>
<stop offset="1" stop-color="#F2B45A"/>
</linearGradient>
<linearGradient id="paint14_linear_7_3362" x1="345.001" y1="29.2031" x2="345.816" y2="44.2516" gradientUnits="userSpaceOnUse">
<stop offset="0.0277" stop-color="#FFD24D"/>
<stop offset="0.7154" stop-color="#F6BE56"/>
<stop offset="1" stop-color="#F2B45A"/>
</linearGradient>
<linearGradient id="paint15_linear_7_3362" x1="344.8" y1="32.9166" x2="346.059" y2="56.1498" gradientUnits="userSpaceOnUse">
<stop offset="0.0277" stop-color="#FFD24D"/>
<stop offset="0.7154" stop-color="#F6BE56"/>
<stop offset="1" stop-color="#F2B45A"/>
</linearGradient>
<linearGradient id="paint16_linear_7_3362" x1="356.708" y1="27.1467" x2="358.001" y2="50.9967" gradientUnits="userSpaceOnUse">
<stop offset="0.0277" stop-color="#FFD24D"/>
<stop offset="0.7154" stop-color="#F6BE56"/>
<stop offset="1" stop-color="#F2B45A"/>
</linearGradient>
<linearGradient id="paint17_linear_7_3362" x1="62.5829" y1="253.789" x2="82.1481" y2="252.075" gradientUnits="userSpaceOnUse">
<stop offset="0.0277" stop-color="#FFD24D"/>
<stop offset="0.1674" stop-color="#EBC34D"/>
<stop offset="0.4544" stop-color="#B69D4D"/>
<stop offset="0.8604" stop-color="#625F4E"/>
<stop offset="1" stop-color="#44494E"/>
</linearGradient>
<linearGradient id="paint18_linear_7_3362" x1="67.3921" y1="252.836" x2="97.7223" y2="250.178" gradientUnits="userSpaceOnUse">
<stop offset="0.0277" stop-color="#FFD24D"/>
<stop offset="0.1674" stop-color="#EBC34D"/>
<stop offset="0.4544" stop-color="#B69D4D"/>
<stop offset="0.8604" stop-color="#625F4E"/>
<stop offset="1" stop-color="#44494E"/>
</linearGradient>
<linearGradient id="paint19_linear_7_3362" x1="62.0757" y1="269.451" x2="93.2174" y2="266.722" gradientUnits="userSpaceOnUse">
<stop offset="0.0277" stop-color="#FFD24D"/>
<stop offset="0.1674" stop-color="#EBC34D"/>
<stop offset="0.4544" stop-color="#B69D4D"/>
<stop offset="0.8604" stop-color="#625F4E"/>
<stop offset="1" stop-color="#44494E"/>
</linearGradient>
<linearGradient id="paint20_linear_7_3362" x1="96.0673" y1="320.443" x2="132.795" y2="320.443" gradientUnits="userSpaceOnUse">
<stop offset="0.0277" stop-color="#FFD24D"/>
<stop offset="0.7154" stop-color="#FFBE56"/>
<stop offset="1" stop-color="#FFB45A"/>
</linearGradient>
<linearGradient id="paint21_linear_7_3362" x1="376.953" y1="184.78" x2="386.978" y2="194.448" gradientUnits="userSpaceOnUse">
<stop offset="0.0277" stop-color="#FFD24D"/>
<stop offset="0.7154" stop-color="#F6BE56"/>
<stop offset="1" stop-color="#F2B45A"/>
</linearGradient>
<linearGradient id="paint22_linear_7_3362" x1="51.2016" y1="268.528" x2="420.885" y2="133.974" gradientUnits="userSpaceOnUse">
<stop offset="0.0277" stop-color="#FFD24D"/>
<stop offset="0.0356" stop-color="#F7CC4C"/>
<stop offset="0.0797" stop-color="#CEAE4A"/>
<stop offset="0.1292" stop-color="#A89348"/>
<stop offset="0.1831" stop-color="#887B45"/>
<stop offset="0.2427" stop-color="#6C6744"/>
<stop offset="0.3099" stop-color="#565742"/>
<stop offset="0.3884" stop-color="#454B41"/>
<stop offset="0.4856" stop-color="#3A4241"/>
<stop offset="0.6218" stop-color="#333D40"/>
<stop offset="1" stop-color="#313C40"/>
</linearGradient>
<linearGradient id="paint23_linear_7_3362" x1="0.00497228" y1="194.44" x2="454.723" y2="194.44" gradientUnits="userSpaceOnUse">
<stop stop-color="#5C5A44"/>
<stop offset="0.6103" stop-color="#3F4541"/>
<stop offset="1" stop-color="#313C40"/>
</linearGradient>
<linearGradient id="paint24_linear_7_3362" x1="140.771" y1="91.74" x2="334.294" y2="285.263" gradientUnits="userSpaceOnUse">
<stop stop-color="#313C40"/>
<stop offset="0.251" stop-color="#333E40"/>
<stop offset="0.397" stop-color="#3C4441"/>
<stop offset="0.5161" stop-color="#4A4E42"/>
<stop offset="0.6208" stop-color="#5E5D43"/>
<stop offset="0.716" stop-color="#786F44"/>
<stop offset="0.8042" stop-color="#988746"/>
<stop offset="0.8873" stop-color="#BDA249"/>
<stop offset="0.964" stop-color="#E8C14C"/>
<stop offset="1" stop-color="#FFD24D"/>
</linearGradient>
</defs>
</svg>
